<mxfile host="app.diagrams.net" modified="2023-10-08T01:16:46.590Z" agent="Mozilla/5.0 (Windows NT 10.0; Win64; x64) AppleWebKit/537.36 (KHTML, like Gecko) Chrome/117.0.0.0 Safari/537.36" etag="Uwo9IU8LdsVkSWIphuNR" version="22.0.4" type="github">
  <diagram id="C5RBs43oDa-KdzZeNtuy" name="Page-1">
    <mxGraphModel dx="1185" dy="639" grid="1" gridSize="10" guides="1" tooltips="1" connect="1" arrows="1" fold="1" page="1" pageScale="1" pageWidth="827" pageHeight="1169" math="0" shadow="0">
      <root>
        <mxCell id="WIyWlLk6GJQsqaUBKTNV-0" />
        <mxCell id="WIyWlLk6GJQsqaUBKTNV-1" parent="WIyWlLk6GJQsqaUBKTNV-0" />
        <mxCell id="mHFNcIPVEUMlUCmuqHuO-12" style="edgeStyle=orthogonalEdgeStyle;rounded=0;orthogonalLoop=1;jettySize=auto;html=1;exitX=0.5;exitY=1;exitDx=0;exitDy=0;entryX=0.497;entryY=-0.05;entryDx=0;entryDy=0;entryPerimeter=0;" parent="WIyWlLk6GJQsqaUBKTNV-1" source="mHFNcIPVEUMlUCmuqHuO-5" target="mHFNcIPVEUMlUCmuqHuO-14" edge="1">
          <mxGeometry relative="1" as="geometry">
            <mxPoint x="120" y="290" as="targetPoint" />
          </mxGeometry>
        </mxCell>
        <mxCell id="mHFNcIPVEUMlUCmuqHuO-5" value="create a list &lt;font color=&quot;#4d9900&quot;&gt;guess&lt;/font&gt; out of target word" style="rounded=0;whiteSpace=wrap;html=1;absoluteArcSize=1;arcSize=14;strokeWidth=2;" parent="WIyWlLk6GJQsqaUBKTNV-1" vertex="1">
          <mxGeometry x="70" y="220" width="100" height="40" as="geometry" />
        </mxCell>
        <mxCell id="mHFNcIPVEUMlUCmuqHuO-8" value="create &lt;font color=&quot;#4d9900&quot;&gt;result&lt;/font&gt; list filled in by spaces as elements" style="rounded=0;whiteSpace=wrap;html=1;absoluteArcSize=1;arcSize=14;strokeWidth=2;" parent="WIyWlLk6GJQsqaUBKTNV-1" vertex="1">
          <mxGeometry x="70" y="140" width="100" height="50" as="geometry" />
        </mxCell>
        <mxCell id="mHFNcIPVEUMlUCmuqHuO-11" style="edgeStyle=orthogonalEdgeStyle;rounded=0;orthogonalLoop=1;jettySize=auto;html=1;exitX=0.5;exitY=1;exitDx=0;exitDy=0;entryX=0.5;entryY=-0.067;entryDx=0;entryDy=0;entryPerimeter=0;" parent="WIyWlLk6GJQsqaUBKTNV-1" source="mHFNcIPVEUMlUCmuqHuO-8" target="mHFNcIPVEUMlUCmuqHuO-5" edge="1">
          <mxGeometry relative="1" as="geometry" />
        </mxCell>
        <mxCell id="mHFNcIPVEUMlUCmuqHuO-14" value="Score letters in the correct positions" style="verticalLabelPosition=middle;verticalAlign=middle;html=1;shape=process;whiteSpace=wrap;rounded=1;size=0.14;arcSize=6;labelPosition=center;align=center;" parent="WIyWlLk6GJQsqaUBKTNV-1" vertex="1">
          <mxGeometry x="70" y="290" width="100" height="60" as="geometry" />
        </mxCell>
        <mxCell id="mHFNcIPVEUMlUCmuqHuO-21" style="edgeStyle=orthogonalEdgeStyle;rounded=0;orthogonalLoop=1;jettySize=auto;html=1;entryX=0.5;entryY=0;entryDx=0;entryDy=0;" parent="WIyWlLk6GJQsqaUBKTNV-1" source="mHFNcIPVEUMlUCmuqHuO-15" target="mHFNcIPVEUMlUCmuqHuO-20" edge="1">
          <mxGeometry relative="1" as="geometry" />
        </mxCell>
        <mxCell id="mHFNcIPVEUMlUCmuqHuO-15" value="Score letters in the incorrect positions&lt;br&gt;and missing letters&lt;br&gt;" style="verticalLabelPosition=middle;verticalAlign=middle;html=1;shape=process;whiteSpace=wrap;rounded=1;size=0.14;arcSize=6;labelPosition=center;align=center;" parent="WIyWlLk6GJQsqaUBKTNV-1" vertex="1">
          <mxGeometry x="70" y="380" width="100" height="100" as="geometry" />
        </mxCell>
        <mxCell id="mHFNcIPVEUMlUCmuqHuO-16" style="edgeStyle=orthogonalEdgeStyle;rounded=0;orthogonalLoop=1;jettySize=auto;html=1;entryX=0.493;entryY=-0.039;entryDx=0;entryDy=0;entryPerimeter=0;" parent="WIyWlLk6GJQsqaUBKTNV-1" source="mHFNcIPVEUMlUCmuqHuO-14" target="mHFNcIPVEUMlUCmuqHuO-15" edge="1">
          <mxGeometry relative="1" as="geometry" />
        </mxCell>
        <mxCell id="mHFNcIPVEUMlUCmuqHuO-17" value="Score guess" style="text;html=1;align=center;verticalAlign=middle;resizable=0;points=[];autosize=1;strokeColor=none;fillColor=none;" parent="WIyWlLk6GJQsqaUBKTNV-1" vertex="1">
          <mxGeometry x="75" y="28" width="90" height="30" as="geometry" />
        </mxCell>
        <mxCell id="mHFNcIPVEUMlUCmuqHuO-20" value="Return &lt;font color=&quot;#4d9900&quot;&gt;result&lt;/font&gt;" style="rounded=0;whiteSpace=wrap;html=1;absoluteArcSize=1;arcSize=14;strokeWidth=2;" parent="WIyWlLk6GJQsqaUBKTNV-1" vertex="1">
          <mxGeometry x="70" y="510" width="100" height="40" as="geometry" />
        </mxCell>
        <mxCell id="mHFNcIPVEUMlUCmuqHuO-23" value="Score letters in the correct positions" style="text;html=1;align=center;verticalAlign=middle;resizable=0;points=[];autosize=1;strokeColor=none;fillColor=none;" parent="WIyWlLk6GJQsqaUBKTNV-1" vertex="1">
          <mxGeometry x="250" y="28" width="210" height="30" as="geometry" />
        </mxCell>
        <mxCell id="mHFNcIPVEUMlUCmuqHuO-24" value="Score letters in the incorrect positions &lt;br&gt;and missing letters" style="text;html=1;align=center;verticalAlign=middle;resizable=0;points=[];autosize=1;strokeColor=none;fillColor=none;" parent="WIyWlLk6GJQsqaUBKTNV-1" vertex="1">
          <mxGeometry x="600" y="28" width="220" height="40" as="geometry" />
        </mxCell>
        <mxCell id="mHFNcIPVEUMlUCmuqHuO-26" value="for each letter in the target word" style="rounded=0;whiteSpace=wrap;html=1;absoluteArcSize=1;arcSize=14;strokeWidth=2;" parent="WIyWlLk6GJQsqaUBKTNV-1" vertex="1">
          <mxGeometry x="305" y="130" width="100" height="50" as="geometry" />
        </mxCell>
        <mxCell id="mHFNcIPVEUMlUCmuqHuO-28" value="letter of guess word = letter of target?" style="strokeWidth=2;html=1;shape=mxgraph.flowchart.decision;whiteSpace=wrap;" parent="WIyWlLk6GJQsqaUBKTNV-1" vertex="1">
          <mxGeometry x="225" y="230" width="260" height="100" as="geometry" />
        </mxCell>
        <mxCell id="mHFNcIPVEUMlUCmuqHuO-30" value="&lt;font color=&quot;#4d9900&quot;&gt;result&lt;/font&gt; = letter" style="rounded=0;whiteSpace=wrap;html=1;absoluteArcSize=1;arcSize=14;strokeWidth=2;" parent="WIyWlLk6GJQsqaUBKTNV-1" vertex="1">
          <mxGeometry x="306" y="360" width="100" height="40" as="geometry" />
        </mxCell>
        <mxCell id="mHFNcIPVEUMlUCmuqHuO-34" style="edgeStyle=orthogonalEdgeStyle;rounded=0;orthogonalLoop=1;jettySize=auto;html=1;exitX=1;exitY=0.5;exitDx=0;exitDy=0;entryX=1;entryY=0.5;entryDx=0;entryDy=0;exitPerimeter=0;" parent="WIyWlLk6GJQsqaUBKTNV-1" source="mHFNcIPVEUMlUCmuqHuO-40" target="mHFNcIPVEUMlUCmuqHuO-26" edge="1">
          <mxGeometry relative="1" as="geometry">
            <Array as="points">
              <mxPoint x="510" y="515" />
              <mxPoint x="510" y="155" />
            </Array>
          </mxGeometry>
        </mxCell>
        <mxCell id="ojgkdANbiECWCrYhJT3p-2" value="YES" style="edgeLabel;html=1;align=center;verticalAlign=middle;resizable=0;points=[];" vertex="1" connectable="0" parent="mHFNcIPVEUMlUCmuqHuO-34">
          <mxGeometry x="-0.8777" relative="1" as="geometry">
            <mxPoint as="offset" />
          </mxGeometry>
        </mxCell>
        <mxCell id="mHFNcIPVEUMlUCmuqHuO-31" value="remove letter from the &lt;font color=&quot;#4d9900&quot;&gt;guess&lt;/font&gt;" style="rounded=0;whiteSpace=wrap;html=1;absoluteArcSize=1;arcSize=14;strokeWidth=2;" parent="WIyWlLk6GJQsqaUBKTNV-1" vertex="1">
          <mxGeometry x="305" y="430" width="100" height="40" as="geometry" />
        </mxCell>
        <mxCell id="mHFNcIPVEUMlUCmuqHuO-32" style="edgeStyle=orthogonalEdgeStyle;rounded=0;orthogonalLoop=1;jettySize=auto;html=1;exitX=0.5;exitY=1;exitDx=0;exitDy=0;exitPerimeter=0;entryX=0.511;entryY=-0.104;entryDx=0;entryDy=0;entryPerimeter=0;" parent="WIyWlLk6GJQsqaUBKTNV-1" source="mHFNcIPVEUMlUCmuqHuO-28" target="mHFNcIPVEUMlUCmuqHuO-30" edge="1">
          <mxGeometry relative="1" as="geometry" />
        </mxCell>
        <mxCell id="mHFNcIPVEUMlUCmuqHuO-35" value="YES" style="edgeLabel;html=1;align=center;verticalAlign=middle;resizable=0;points=[];" parent="mHFNcIPVEUMlUCmuqHuO-32" vertex="1" connectable="0">
          <mxGeometry x="-0.061" y="-1" relative="1" as="geometry">
            <mxPoint as="offset" />
          </mxGeometry>
        </mxCell>
        <mxCell id="mHFNcIPVEUMlUCmuqHuO-33" style="edgeStyle=orthogonalEdgeStyle;rounded=0;orthogonalLoop=1;jettySize=auto;html=1;entryX=0.506;entryY=-0.082;entryDx=0;entryDy=0;entryPerimeter=0;" parent="WIyWlLk6GJQsqaUBKTNV-1" source="mHFNcIPVEUMlUCmuqHuO-30" target="mHFNcIPVEUMlUCmuqHuO-31" edge="1">
          <mxGeometry relative="1" as="geometry" />
        </mxCell>
        <mxCell id="mHFNcIPVEUMlUCmuqHuO-36" style="edgeStyle=orthogonalEdgeStyle;rounded=0;orthogonalLoop=1;jettySize=auto;html=1;exitX=0;exitY=0.5;exitDx=0;exitDy=0;exitPerimeter=0;entryX=0.006;entryY=0.437;entryDx=0;entryDy=0;entryPerimeter=0;" parent="WIyWlLk6GJQsqaUBKTNV-1" source="mHFNcIPVEUMlUCmuqHuO-28" target="mHFNcIPVEUMlUCmuqHuO-26" edge="1">
          <mxGeometry relative="1" as="geometry">
            <Array as="points">
              <mxPoint x="200" y="280" />
              <mxPoint x="200" y="152" />
            </Array>
          </mxGeometry>
        </mxCell>
        <mxCell id="mHFNcIPVEUMlUCmuqHuO-37" value="NO" style="edgeLabel;html=1;align=center;verticalAlign=middle;resizable=0;points=[];" parent="mHFNcIPVEUMlUCmuqHuO-36" vertex="1" connectable="0">
          <mxGeometry x="-0.8889" y="-1" relative="1" as="geometry">
            <mxPoint as="offset" />
          </mxGeometry>
        </mxCell>
        <mxCell id="mHFNcIPVEUMlUCmuqHuO-38" style="edgeStyle=orthogonalEdgeStyle;rounded=0;orthogonalLoop=1;jettySize=auto;html=1;exitX=0.5;exitY=1;exitDx=0;exitDy=0;entryX=0.501;entryY=-0.039;entryDx=0;entryDy=0;entryPerimeter=0;" parent="WIyWlLk6GJQsqaUBKTNV-1" source="mHFNcIPVEUMlUCmuqHuO-26" target="mHFNcIPVEUMlUCmuqHuO-28" edge="1">
          <mxGeometry relative="1" as="geometry" />
        </mxCell>
        <mxCell id="ojgkdANbiECWCrYhJT3p-52" value="" style="edgeStyle=orthogonalEdgeStyle;rounded=0;orthogonalLoop=1;jettySize=auto;html=1;" edge="1" parent="WIyWlLk6GJQsqaUBKTNV-1" source="mHFNcIPVEUMlUCmuqHuO-40" target="ojgkdANbiECWCrYhJT3p-48">
          <mxGeometry relative="1" as="geometry" />
        </mxCell>
        <mxCell id="mHFNcIPVEUMlUCmuqHuO-40" value="Any letters left?" style="strokeWidth=2;html=1;shape=mxgraph.flowchart.decision;whiteSpace=wrap;" parent="WIyWlLk6GJQsqaUBKTNV-1" vertex="1">
          <mxGeometry x="270" y="490" width="170" height="50" as="geometry" />
        </mxCell>
        <mxCell id="mHFNcIPVEUMlUCmuqHuO-41" style="edgeStyle=orthogonalEdgeStyle;rounded=0;orthogonalLoop=1;jettySize=auto;html=1;exitX=0.5;exitY=1;exitDx=0;exitDy=0;entryX=0.5;entryY=0;entryDx=0;entryDy=0;entryPerimeter=0;" parent="WIyWlLk6GJQsqaUBKTNV-1" source="mHFNcIPVEUMlUCmuqHuO-31" target="mHFNcIPVEUMlUCmuqHuO-40" edge="1">
          <mxGeometry relative="1" as="geometry" />
        </mxCell>
        <mxCell id="ojgkdANbiECWCrYhJT3p-7" value="for each letter in the target word" style="rounded=0;whiteSpace=wrap;html=1;absoluteArcSize=1;arcSize=14;strokeWidth=2;" vertex="1" parent="WIyWlLk6GJQsqaUBKTNV-1">
          <mxGeometry x="660" y="140" width="100" height="50" as="geometry" />
        </mxCell>
        <mxCell id="ojgkdANbiECWCrYhJT3p-23" style="edgeStyle=orthogonalEdgeStyle;rounded=0;orthogonalLoop=1;jettySize=auto;html=1;exitX=1;exitY=0.5;exitDx=0;exitDy=0;exitPerimeter=0;entryX=0.5;entryY=0;entryDx=0;entryDy=0;" edge="1" parent="WIyWlLk6GJQsqaUBKTNV-1" source="ojgkdANbiECWCrYhJT3p-8" target="ojgkdANbiECWCrYhJT3p-14">
          <mxGeometry relative="1" as="geometry">
            <Array as="points">
              <mxPoint x="872" y="280" />
              <mxPoint x="872" y="360" />
              <mxPoint x="802" y="360" />
            </Array>
          </mxGeometry>
        </mxCell>
        <mxCell id="ojgkdANbiECWCrYhJT3p-24" value="NO" style="edgeLabel;html=1;align=center;verticalAlign=middle;resizable=0;points=[];" vertex="1" connectable="0" parent="ojgkdANbiECWCrYhJT3p-23">
          <mxGeometry x="-0.9043" y="1" relative="1" as="geometry">
            <mxPoint as="offset" />
          </mxGeometry>
        </mxCell>
        <mxCell id="ojgkdANbiECWCrYhJT3p-8" value="letter is inside &lt;font color=&quot;#4d9900&quot;&gt;guess?&lt;/font&gt;" style="strokeWidth=2;html=1;shape=mxgraph.flowchart.decision;whiteSpace=wrap;" vertex="1" parent="WIyWlLk6GJQsqaUBKTNV-1">
          <mxGeometry x="580" y="230" width="260" height="100" as="geometry" />
        </mxCell>
        <mxCell id="ojgkdANbiECWCrYhJT3p-9" value="&lt;font color=&quot;#4d9900&quot;&gt;result&lt;/font&gt; = &#39;*&#39;" style="rounded=0;whiteSpace=wrap;html=1;absoluteArcSize=1;arcSize=14;strokeWidth=2;" vertex="1" parent="WIyWlLk6GJQsqaUBKTNV-1">
          <mxGeometry x="560" y="390" width="100" height="40" as="geometry" />
        </mxCell>
        <mxCell id="ojgkdANbiECWCrYhJT3p-10" value="remove letter from the &lt;font color=&quot;#4d9900&quot;&gt;guess&lt;/font&gt;" style="rounded=0;whiteSpace=wrap;html=1;absoluteArcSize=1;arcSize=14;strokeWidth=2;" vertex="1" parent="WIyWlLk6GJQsqaUBKTNV-1">
          <mxGeometry x="562" y="450" width="100" height="40" as="geometry" />
        </mxCell>
        <mxCell id="ojgkdANbiECWCrYhJT3p-11" style="edgeStyle=orthogonalEdgeStyle;rounded=0;orthogonalLoop=1;jettySize=auto;html=1;exitX=0;exitY=0.5;exitDx=0;exitDy=0;exitPerimeter=0;entryX=0.556;entryY=0.032;entryDx=0;entryDy=0;entryPerimeter=0;" edge="1" parent="WIyWlLk6GJQsqaUBKTNV-1" source="ojgkdANbiECWCrYhJT3p-8" target="ojgkdANbiECWCrYhJT3p-9">
          <mxGeometry relative="1" as="geometry">
            <Array as="points">
              <mxPoint x="550" y="280" />
              <mxPoint x="550" y="360" />
              <mxPoint x="616" y="360" />
            </Array>
          </mxGeometry>
        </mxCell>
        <mxCell id="ojgkdANbiECWCrYhJT3p-13" value="YES" style="edgeLabel;html=1;align=center;verticalAlign=middle;resizable=0;points=[];" vertex="1" connectable="0" parent="ojgkdANbiECWCrYhJT3p-11">
          <mxGeometry x="-0.9128" y="1" relative="1" as="geometry">
            <mxPoint as="offset" />
          </mxGeometry>
        </mxCell>
        <mxCell id="ojgkdANbiECWCrYhJT3p-12" style="edgeStyle=orthogonalEdgeStyle;rounded=0;orthogonalLoop=1;jettySize=auto;html=1;exitX=0.5;exitY=1;exitDx=0;exitDy=0;entryX=0.487;entryY=-0.035;entryDx=0;entryDy=0;entryPerimeter=0;" edge="1" parent="WIyWlLk6GJQsqaUBKTNV-1" source="ojgkdANbiECWCrYhJT3p-9" target="ojgkdANbiECWCrYhJT3p-10">
          <mxGeometry relative="1" as="geometry" />
        </mxCell>
        <mxCell id="ojgkdANbiECWCrYhJT3p-14" value="&lt;font color=&quot;#4d9900&quot;&gt;result&lt;/font&gt; = &#39;-&#39;" style="rounded=0;whiteSpace=wrap;html=1;absoluteArcSize=1;arcSize=14;strokeWidth=2;" vertex="1" parent="WIyWlLk6GJQsqaUBKTNV-1">
          <mxGeometry x="752" y="390" width="100" height="40" as="geometry" />
        </mxCell>
        <mxCell id="ojgkdANbiECWCrYhJT3p-21" style="edgeStyle=orthogonalEdgeStyle;rounded=0;orthogonalLoop=1;jettySize=auto;html=1;exitX=1;exitY=0.5;exitDx=0;exitDy=0;exitPerimeter=0;entryX=1;entryY=0.5;entryDx=0;entryDy=0;" edge="1" parent="WIyWlLk6GJQsqaUBKTNV-1" source="ojgkdANbiECWCrYhJT3p-15" target="ojgkdANbiECWCrYhJT3p-7">
          <mxGeometry relative="1" as="geometry">
            <Array as="points">
              <mxPoint x="892" y="530" />
              <mxPoint x="892" y="165" />
            </Array>
          </mxGeometry>
        </mxCell>
        <mxCell id="ojgkdANbiECWCrYhJT3p-15" value="Any letters left?" style="strokeWidth=2;html=1;shape=mxgraph.flowchart.decision;whiteSpace=wrap;" vertex="1" parent="WIyWlLk6GJQsqaUBKTNV-1">
          <mxGeometry x="625.01" y="505" width="170" height="50" as="geometry" />
        </mxCell>
        <mxCell id="ojgkdANbiECWCrYhJT3p-16" style="edgeStyle=orthogonalEdgeStyle;rounded=0;orthogonalLoop=1;jettySize=auto;html=1;exitX=0;exitY=0.5;exitDx=0;exitDy=0;entryX=0.5;entryY=0;entryDx=0;entryDy=0;entryPerimeter=0;" edge="1" parent="WIyWlLk6GJQsqaUBKTNV-1" source="ojgkdANbiECWCrYhJT3p-14" target="ojgkdANbiECWCrYhJT3p-15">
          <mxGeometry relative="1" as="geometry" />
        </mxCell>
        <mxCell id="ojgkdANbiECWCrYhJT3p-17" style="edgeStyle=orthogonalEdgeStyle;rounded=0;orthogonalLoop=1;jettySize=auto;html=1;exitX=1;exitY=0.5;exitDx=0;exitDy=0;entryX=0.5;entryY=0;entryDx=0;entryDy=0;entryPerimeter=0;" edge="1" parent="WIyWlLk6GJQsqaUBKTNV-1" source="ojgkdANbiECWCrYhJT3p-10" target="ojgkdANbiECWCrYhJT3p-15">
          <mxGeometry relative="1" as="geometry" />
        </mxCell>
        <mxCell id="ojgkdANbiECWCrYhJT3p-22" style="edgeStyle=orthogonalEdgeStyle;rounded=0;orthogonalLoop=1;jettySize=auto;html=1;exitX=0.5;exitY=1;exitDx=0;exitDy=0;entryX=0.5;entryY=0;entryDx=0;entryDy=0;entryPerimeter=0;" edge="1" parent="WIyWlLk6GJQsqaUBKTNV-1" source="ojgkdANbiECWCrYhJT3p-7" target="ojgkdANbiECWCrYhJT3p-8">
          <mxGeometry relative="1" as="geometry" />
        </mxCell>
        <mxCell id="ojgkdANbiECWCrYhJT3p-38" value="Start" style="strokeWidth=2;html=1;shape=mxgraph.flowchart.start_2;whiteSpace=wrap;" vertex="1" parent="WIyWlLk6GJQsqaUBKTNV-1">
          <mxGeometry x="100" y="63" width="40" height="40" as="geometry" />
        </mxCell>
        <mxCell id="ojgkdANbiECWCrYhJT3p-42" style="edgeStyle=orthogonalEdgeStyle;rounded=0;orthogonalLoop=1;jettySize=auto;html=1;exitX=0.5;exitY=1;exitDx=0;exitDy=0;exitPerimeter=0;entryX=0.5;entryY=0;entryDx=0;entryDy=0;" edge="1" parent="WIyWlLk6GJQsqaUBKTNV-1" source="ojgkdANbiECWCrYhJT3p-39" target="mHFNcIPVEUMlUCmuqHuO-26">
          <mxGeometry relative="1" as="geometry" />
        </mxCell>
        <mxCell id="ojgkdANbiECWCrYhJT3p-39" value="Start" style="strokeWidth=2;html=1;shape=mxgraph.flowchart.start_2;whiteSpace=wrap;" vertex="1" parent="WIyWlLk6GJQsqaUBKTNV-1">
          <mxGeometry x="335" y="63" width="40" height="40" as="geometry" />
        </mxCell>
        <mxCell id="ojgkdANbiECWCrYhJT3p-40" value="Start" style="strokeWidth=2;html=1;shape=mxgraph.flowchart.start_2;whiteSpace=wrap;" vertex="1" parent="WIyWlLk6GJQsqaUBKTNV-1">
          <mxGeometry x="690.01" y="63" width="40" height="40" as="geometry" />
        </mxCell>
        <mxCell id="ojgkdANbiECWCrYhJT3p-41" style="edgeStyle=orthogonalEdgeStyle;rounded=0;orthogonalLoop=1;jettySize=auto;html=1;exitX=0.5;exitY=1;exitDx=0;exitDy=0;exitPerimeter=0;entryX=0.501;entryY=0;entryDx=0;entryDy=0;entryPerimeter=0;" edge="1" parent="WIyWlLk6GJQsqaUBKTNV-1" source="ojgkdANbiECWCrYhJT3p-38" target="mHFNcIPVEUMlUCmuqHuO-8">
          <mxGeometry relative="1" as="geometry" />
        </mxCell>
        <mxCell id="ojgkdANbiECWCrYhJT3p-43" style="edgeStyle=orthogonalEdgeStyle;rounded=0;orthogonalLoop=1;jettySize=auto;html=1;exitX=0.5;exitY=1;exitDx=0;exitDy=0;exitPerimeter=0;entryX=0.515;entryY=-0.041;entryDx=0;entryDy=0;entryPerimeter=0;" edge="1" parent="WIyWlLk6GJQsqaUBKTNV-1" source="ojgkdANbiECWCrYhJT3p-40" target="ojgkdANbiECWCrYhJT3p-7">
          <mxGeometry relative="1" as="geometry" />
        </mxCell>
        <mxCell id="ojgkdANbiECWCrYhJT3p-47" value="End" style="strokeWidth=2;html=1;shape=mxgraph.flowchart.start_2;whiteSpace=wrap;" vertex="1" parent="WIyWlLk6GJQsqaUBKTNV-1">
          <mxGeometry x="100" y="580" width="40" height="40" as="geometry" />
        </mxCell>
        <mxCell id="ojgkdANbiECWCrYhJT3p-48" value="End" style="strokeWidth=2;html=1;shape=mxgraph.flowchart.start_2;whiteSpace=wrap;" vertex="1" parent="WIyWlLk6GJQsqaUBKTNV-1">
          <mxGeometry x="335" y="580" width="40" height="40" as="geometry" />
        </mxCell>
        <mxCell id="ojgkdANbiECWCrYhJT3p-49" value="End" style="strokeWidth=2;html=1;shape=mxgraph.flowchart.start_2;whiteSpace=wrap;" vertex="1" parent="WIyWlLk6GJQsqaUBKTNV-1">
          <mxGeometry x="690.01" y="580" width="40" height="40" as="geometry" />
        </mxCell>
        <mxCell id="ojgkdANbiECWCrYhJT3p-50" style="edgeStyle=orthogonalEdgeStyle;rounded=0;orthogonalLoop=1;jettySize=auto;html=1;exitX=0.5;exitY=1;exitDx=0;exitDy=0;entryX=0.502;entryY=-0.098;entryDx=0;entryDy=0;entryPerimeter=0;" edge="1" parent="WIyWlLk6GJQsqaUBKTNV-1" source="mHFNcIPVEUMlUCmuqHuO-20" target="ojgkdANbiECWCrYhJT3p-47">
          <mxGeometry relative="1" as="geometry" />
        </mxCell>
        <mxCell id="ojgkdANbiECWCrYhJT3p-53" style="edgeStyle=orthogonalEdgeStyle;rounded=0;orthogonalLoop=1;jettySize=auto;html=1;exitX=0.5;exitY=1;exitDx=0;exitDy=0;exitPerimeter=0;entryX=0.526;entryY=-0.086;entryDx=0;entryDy=0;entryPerimeter=0;" edge="1" parent="WIyWlLk6GJQsqaUBKTNV-1" source="ojgkdANbiECWCrYhJT3p-15" target="ojgkdANbiECWCrYhJT3p-49">
          <mxGeometry relative="1" as="geometry" />
        </mxCell>
      </root>
    </mxGraphModel>
  </diagram>
</mxfile>
